<svg width="199" height="194" viewBox="0 0 199 194" fill="none" xmlns="http://www.w3.org/2000/svg">
<ellipse cx="99.5" cy="97" rx="99.5" ry="97" fill="#060202"/>
<path d="M189 97C189 144.81 149.171 184 99.5 184C49.8291 184 10 144.81 10 97C10 49.1896 49.8291 10 99.5 10C149.171 10 189 49.1896 189 97Z" fill="#0D374F" stroke="url(#paint0_angular_104_44)" stroke-width="20"/>
<path d="M37.2955 111V87.7273H46.2045C47.8864 87.7273 49.2841 87.9924 50.3977 88.5227C51.5189 89.0455 52.3561 89.7614 52.9091 90.6705C53.4697 91.5795 53.75 92.6098 53.75 93.7614C53.75 94.7083 53.5682 95.5189 53.2045 96.1932C52.8409 96.8598 52.3523 97.4015 51.7386 97.8182C51.125 98.2348 50.4394 98.5341 49.6818 98.7159V98.9432C50.5076 98.9886 51.2992 99.2424 52.0568 99.7045C52.822 100.159 53.447 100.803 53.9318 101.636C54.4167 102.47 54.6591 103.477 54.6591 104.659C54.6591 105.864 54.3674 106.947 53.7841 107.909C53.2008 108.864 52.322 109.617 51.1477 110.17C49.9735 110.723 48.4962 111 46.7159 111H37.2955ZM41.5114 107.477H46.0455C47.5758 107.477 48.678 107.186 49.3523 106.602C50.0341 106.011 50.375 105.254 50.375 104.33C50.375 103.64 50.2045 103.019 49.8636 102.466C49.5227 101.905 49.0379 101.466 48.4091 101.148C47.7803 100.822 47.0303 100.659 46.1591 100.659H41.5114V107.477ZM41.5114 97.625H45.6818C46.4091 97.625 47.0644 97.4924 47.6477 97.2273C48.2311 96.9545 48.6894 96.572 49.0227 96.0795C49.3636 95.5795 49.5341 94.9886 49.5341 94.3068C49.5341 93.4053 49.2159 92.6629 48.5795 92.0795C47.9508 91.4962 47.0152 91.2045 45.7727 91.2045H41.5114V97.625ZM66.5953 111H62.0953L70.2885 87.7273H75.4931L83.6976 111H79.1976L72.9817 92.5H72.7999L66.5953 111ZM66.7431 101.875H79.0158V105.261H66.7431V101.875ZM88.077 87.7273H92.8384L98.5316 98.0227H98.7589L104.452 87.7273H109.213L100.748 102.318V111H96.543V102.318L88.077 87.7273ZM117.479 111V87.7273H132.616V91.2614H121.695V97.5795H131.831V101.114H121.695V107.466H132.706V111H117.479ZM142.197 111V87.7273H150.924C152.712 87.7273 154.212 88.0379 155.424 88.6591C156.644 89.2803 157.564 90.1515 158.185 91.2727C158.814 92.3864 159.129 93.6856 159.129 95.1705C159.129 96.6629 158.81 97.9583 158.174 99.0568C157.545 100.148 156.617 100.992 155.39 101.591C154.163 102.182 152.655 102.477 150.867 102.477H144.651V98.9773H150.299C151.344 98.9773 152.2 98.8333 152.867 98.5455C153.534 98.25 154.026 97.822 154.344 97.2614C154.67 96.6932 154.833 95.9962 154.833 95.1705C154.833 94.3447 154.67 93.6402 154.344 93.0568C154.019 92.4659 153.522 92.0189 152.856 91.7159C152.189 91.4053 151.329 91.25 150.276 91.25H146.413V111H142.197ZM154.219 100.455L159.981 111H155.276L149.617 100.455H154.219Z" fill="#F5FCFE"/>
<path d="M90.6408 51.7767V28.504H99.5499C101.232 28.504 102.629 28.7692 103.743 29.2995C104.864 29.8222 105.701 30.5381 106.254 31.4472C106.815 32.3563 107.095 33.3866 107.095 34.5381C107.095 35.4851 106.914 36.2957 106.55 36.9699C106.186 37.6366 105.698 38.1782 105.084 38.5949C104.47 39.0116 103.785 39.3108 103.027 39.4926V39.7199C103.853 39.7654 104.645 40.0192 105.402 40.4813C106.167 40.9358 106.792 41.5798 107.277 42.4131C107.762 43.2464 108.004 44.254 108.004 45.4358C108.004 46.6404 107.713 47.7237 107.129 48.6858C106.546 49.6404 105.667 50.3942 104.493 50.9472C103.319 51.5002 101.842 51.7767 100.061 51.7767H90.6408ZM94.8567 48.254H99.3908C100.921 48.254 102.023 47.9623 102.698 47.379C103.379 46.7881 103.72 46.0305 103.72 45.1063C103.72 44.4169 103.55 43.7957 103.209 43.2426C102.868 42.682 102.383 42.2426 101.754 41.9245C101.126 41.5987 100.376 41.4358 99.5044 41.4358H94.8567V48.254ZM94.8567 38.4017H99.0272C99.7544 38.4017 100.41 38.2692 100.993 38.004C101.576 37.7313 102.035 37.3487 102.368 36.8563C102.709 36.3563 102.879 35.7654 102.879 35.0836C102.879 34.182 102.561 33.4396 101.925 32.8563C101.296 32.2729 100.36 31.9813 99.1181 31.9813H94.8567V38.4017Z" fill="#F5FCFE"/>
<path d="M91.8446 79.7488H87.3446L95.5378 56.4761H100.742L108.947 79.7488H104.447L98.231 61.2488H98.0492L91.8446 79.7488ZM91.9924 70.6238H104.265V74.0101H91.9924V70.6238Z" fill="#F5FCFE"/>
<path d="M90.6408 140.4V117.127H105.777V120.661H94.8567V126.98H104.993V130.514H94.8567V136.866H105.868V140.4H90.6408Z" fill="#F5FCFE"/>
<path d="M90.6408 169.274V146.002H99.3681C101.156 146.002 102.656 146.312 103.868 146.934C105.088 147.555 106.008 148.426 106.629 149.547C107.258 150.661 107.573 151.96 107.573 153.445C107.573 154.937 107.254 156.233 106.618 157.331C105.989 158.422 105.061 159.267 103.834 159.865C102.607 160.456 101.099 160.752 99.3112 160.752H93.0953V157.252H98.7431C99.7885 157.252 100.645 157.108 101.311 156.82C101.978 156.524 102.47 156.096 102.789 155.536C103.114 154.968 103.277 154.271 103.277 153.445C103.277 152.619 103.114 151.915 102.789 151.331C102.463 150.74 101.967 150.293 101.3 149.99C100.633 149.68 99.7734 149.524 98.7203 149.524H94.8567V169.274H90.6408ZM102.664 158.729L108.425 169.274H103.72L98.0612 158.729H102.664Z" fill="#F5FCFE"/>
<defs>
<radialGradient id="paint0_angular_104_44" cx="0" cy="0" r="1" gradientUnits="userSpaceOnUse" gradientTransform="translate(99.5 97) rotate(90) scale(97 99.5)">
<stop stop-color="#89D329"/>
<stop offset="1" stop-color="#00BCFF"/>
</radialGradient>
</defs>
</svg>
