<svg width="262" height="75" viewBox="0 0 262 75" fill="none" xmlns="http://www.w3.org/2000/svg">
<g filter="url(#filter0_d_205_10)">
<path d="M34.8182 29.4844C34.5099 28.4129 34.0769 27.4661 33.5192 26.6442C32.9614 25.8075 32.2789 25.103 31.4716 24.5305C30.679 23.9434 29.7689 23.4957 28.7415 23.1875C27.7287 22.8793 26.6058 22.7251 25.3729 22.7251C23.0684 22.7251 21.0429 23.2976 19.2962 24.4425C17.5642 25.5874 16.2138 27.2533 15.245 29.4403C14.2763 31.6127 13.7919 34.2694 13.7919 37.4105C13.7919 40.5516 14.2689 43.223 15.223 45.4247C16.1771 47.6264 17.5275 49.3071 19.2741 50.4666C21.0208 51.6115 23.0831 52.1839 25.4609 52.1839C27.6186 52.1839 29.4607 51.8023 30.9872 51.0391C32.5284 50.2611 33.7027 49.1676 34.5099 47.7585C35.3319 46.3494 35.7429 44.6835 35.7429 42.7607L37.6804 43.0469H26.0554V35.8693H44.924V41.5497C44.924 45.5128 44.0874 48.9181 42.4141 51.7656C40.7408 54.5985 38.4363 56.7855 35.5007 58.3267C32.5651 59.8532 29.2038 60.6165 25.4169 60.6165C21.1896 60.6165 17.4761 59.6844 14.2763 57.8203C11.0765 55.9415 8.5812 53.2775 6.79048 49.8281C5.01444 46.3641 4.12642 42.2543 4.12642 37.4986C4.12642 33.8437 4.65483 30.5852 5.71165 27.723C6.78314 24.8461 8.2803 22.4096 10.2031 20.4134C12.1259 18.4171 14.3643 16.898 16.9183 15.8558C19.4723 14.8137 22.2391 14.2926 25.2188 14.2926C27.7727 14.2926 30.1506 14.6669 32.3523 15.4155C34.554 16.1494 36.5062 17.1915 38.2088 18.5419C39.9261 19.8923 41.3279 21.4995 42.4141 23.3636C43.5002 25.2131 44.1974 27.2533 44.5057 29.4844H34.8182ZM67.1887 60.6605C63.7688 60.6605 60.8111 59.9339 58.3159 58.4808C55.8353 57.013 53.9198 54.9728 52.5694 52.3601C51.219 49.7327 50.5439 46.687 50.5439 43.223C50.5439 39.7296 51.219 36.6766 52.5694 34.0639C53.9198 31.4366 55.8353 29.3963 58.3159 27.9432C60.8111 26.4754 63.7688 25.7415 67.1887 25.7415C70.6087 25.7415 73.559 26.4754 76.0396 27.9432C78.5349 29.3963 80.4577 31.4366 81.8081 34.0639C83.1584 36.6766 83.8336 39.7296 83.8336 43.223C83.8336 46.687 83.1584 49.7327 81.8081 52.3601C80.4577 54.9728 78.5349 57.013 76.0396 58.4808C73.559 59.9339 70.6087 60.6605 67.1887 60.6605ZM67.2328 53.3949C68.7886 53.3949 70.0877 52.9545 71.1298 52.0739C72.1719 51.1785 72.9572 49.9602 73.4856 48.419C74.0287 46.8778 74.3002 45.1238 74.3002 43.157C74.3002 41.1901 74.0287 39.4361 73.4856 37.8949C72.9572 36.3537 72.1719 35.1354 71.1298 34.2401C70.0877 33.3447 68.7886 32.897 67.2328 32.897C65.6622 32.897 64.3412 33.3447 63.2697 34.2401C62.2129 35.1354 61.4129 36.3537 60.8699 37.8949C60.3414 39.4361 60.0772 41.1901 60.0772 43.157C60.0772 45.1238 60.3414 46.8778 60.8699 48.419C61.4129 49.9602 62.2129 51.1785 63.2697 52.0739C64.3412 52.9545 65.6622 53.3949 67.2328 53.3949Z" fill="#00BCFF"/>
<path d="M101.919 60V14.9091H111.452V52.1399H130.783V60H101.919ZM136.921 60V26.1818H146.3V60H136.921ZM141.632 21.8224C140.238 21.8224 139.042 21.3601 138.044 20.4354C137.06 19.496 136.568 18.3731 136.568 17.0668C136.568 15.7751 137.06 14.6669 138.044 13.7422C139.042 12.8028 140.238 12.3331 141.632 12.3331C143.027 12.3331 144.216 12.8028 145.199 13.7422C146.197 14.6669 146.696 15.7751 146.696 17.0668C146.696 18.3731 146.197 19.496 145.199 20.4354C144.216 21.3601 143.027 21.8224 141.632 21.8224ZM163.192 40.4489V60H153.813V26.1818H162.752V32.1484H163.148C163.897 30.1816 165.152 28.6257 166.913 27.4808C168.675 26.3213 170.81 25.7415 173.32 25.7415C175.669 25.7415 177.716 26.2552 179.463 27.2827C181.21 28.3101 182.567 29.7779 183.536 31.6861C184.505 33.5795 184.989 35.84 184.989 38.4673V60H175.61V40.1406C175.625 38.071 175.096 36.4564 174.025 35.2969C172.953 34.1226 171.478 33.5355 169.599 33.5355C168.337 33.5355 167.222 33.8071 166.253 34.3501C165.299 34.8932 164.55 35.6858 164.007 36.728C163.479 37.7554 163.207 38.9957 163.192 40.4489ZM200.88 50.2685L200.902 39.0178H202.267L213.1 26.1818H223.866L209.313 43.179H207.089L200.88 50.2685ZM192.382 60V14.9091H201.761V60H192.382ZM213.518 60L203.566 45.2706L209.819 38.6435L224.504 60H213.518ZM256.605 35.8253L248.019 36.3537C247.872 35.6198 247.556 34.9593 247.072 34.3722C246.588 33.7704 245.949 33.2933 245.156 32.941C244.378 32.5741 243.446 32.3906 242.36 32.3906C240.907 32.3906 239.682 32.6989 238.683 33.3153C237.685 33.9171 237.186 34.7244 237.186 35.7372C237.186 36.5445 237.509 37.227 238.155 37.7848C238.801 38.3426 239.909 38.7902 241.48 39.1278L247.6 40.3608C250.888 41.036 253.339 42.1222 254.954 43.6193C256.569 45.1165 257.376 47.0833 257.376 49.5199C257.376 51.7363 256.723 53.6811 255.416 55.3544C254.125 57.0277 252.349 58.334 250.088 59.2734C247.843 60.1982 245.252 60.6605 242.316 60.6605C237.839 60.6605 234.273 59.7285 231.616 57.8643C228.974 55.9856 227.425 53.4316 226.97 50.2024L236.195 49.718C236.474 51.0831 237.15 52.1252 238.221 52.8445C239.293 53.549 240.665 53.9013 242.338 53.9013C243.982 53.9013 245.303 53.5857 246.301 52.9545C247.314 52.3087 247.828 51.4794 247.843 50.4666C247.828 49.6153 247.468 48.9181 246.764 48.375C246.059 47.8172 244.973 47.3916 243.505 47.098L237.649 45.9311C234.346 45.2706 231.887 44.1257 230.273 42.4964C228.673 40.8672 227.873 38.7902 227.873 36.2656C227.873 34.0933 228.46 32.2218 229.634 30.6513C230.823 29.0807 232.489 27.8698 234.632 27.0185C236.79 26.1671 239.315 25.7415 242.206 25.7415C246.477 25.7415 249.839 26.6442 252.29 28.4496C254.756 30.255 256.194 32.7135 256.605 35.8253Z" fill="#89D329"/>
</g>
<defs>
<filter id="filter0_d_205_10" x="0.126465" y="12.3331" width="261.249" height="56.3274" filterUnits="userSpaceOnUse" color-interpolation-filters="sRGB">
<feFlood flood-opacity="0" result="BackgroundImageFix"/>
<feColorMatrix in="SourceAlpha" type="matrix" values="0 0 0 0 0 0 0 0 0 0 0 0 0 0 0 0 0 0 127 0" result="hardAlpha"/>
<feOffset dy="4"/>
<feGaussianBlur stdDeviation="2"/>
<feComposite in2="hardAlpha" operator="out"/>
<feColorMatrix type="matrix" values="0 0 0 0 0 0 0 0 0 0 0 0 0 0 0 0 0 0 0.25 0"/>
<feBlend mode="normal" in2="BackgroundImageFix" result="effect1_dropShadow_205_10"/>
<feBlend mode="normal" in="SourceGraphic" in2="effect1_dropShadow_205_10" result="shape"/>
</filter>
</defs>
</svg>
